<?xml version="1.0" encoding="utf-8"?>
<!-- Generator: Adobe Illustrator 21.1.0, SVG Export Plug-In . SVG Version: 6.00 Build 0)  -->
<svg version="1.1"
	 id="svg2" xmlns:cc="http://creativecommons.org/ns#" xmlns:dc="http://purl.org/dc/elements/1.1/" xmlns:rdf="http://www.w3.org/1999/02/22-rdf-syntax-ns#" xmlns:svg="http://www.w3.org/2000/svg"
	 xmlns="http://www.w3.org/2000/svg" xmlns:xlink="http://www.w3.org/1999/xlink" x="0px" y="0px" viewBox="0 0 30 30"
	 style="enable-background:new 0 0 30 30;" xml:space="preserve">
<style type="text/css">
	.st0{clip-path:url(#SVGID_2_);}
	.st1{fill:#90603E;}
	.st2{fill:#AF7E57;}
</style>
<g id="g10" transform="matrix(1.25,0,0,-1.25,0,45)">
	<g id="g12">
		<g>
			<defs>
				<rect id="SVGID_1_" x="-3" y="9" width="30" height="30"/>
			</defs>
			<clipPath id="SVGID_2_">
				<use xlink:href="#SVGID_1_"  style="overflow:visible;"/>
			</clipPath>
			<g id="g14" class="st0">
				<g id="g20" transform="translate(25,18.875)">
					<path id="path22" class="st1" d="M-8.3,5.7l-5.3,0c-0.7,0-1.2-0.5-1.2-1.2s0.5-1.2,1.2-1.2l3.5,0c0,0,0.6,0.1,0.6-0.4
						c0-0.2-0.2-0.4-0.4-0.4c0,0-3,0.1-3.2-4.6c0-0.2-0.2-0.4-0.4-0.4s-0.4,0.2-0.4,0.4c0,2,0.9,4,1.9,4.5c-0.6,0-1.1,0-1.5,0
						c-0.7,0-1,0.2-1,0.2c-0.1-0.2-0.4-0.8-1.8-0.8c-1.6,0-2,1.6-2,2v3.3l0.1,0c0,0.5,0.3,1,0.8,1.2l-0.1-4.4c0-0.7,0.5-1.4,1.3-1.4
						c0.5,0,0.8,0.2,1.1,0.6c-0.3,0.4-0.5,0.8-0.5,1.3c0,0.6,0.2,1.2,0.6,1.6l0,1.8l0.1,0c0,0.5,0.3,1,0.8,1.2l0-1.9l0-0.7
						c0.2,0.1,0.4,0.1,0.6,0.1l1.9,0v1.9l0.1,0v6c0,0.5,0.3,1,0.8,1.2l0-9.1h2.4l0.1-0.1c0.6,0,1.1-1.3,1.1-1.3s0,0,0,0
						C-7.3,5.4-7.7,5.7-8.3,5.7"/>
				</g>
				<g id="g24" transform="translate(15,19.2217)">
					<path id="path26" class="st2" d="M-5,5.6c-0.4-0.4-0.7-0.9-0.7-1.5c0-0.5,0.2-1,0.5-1.3c-0.2-0.4-0.7-0.7-1.2-0.7
						c-0.7,0-1.3,0.6-1.3,1.3v4c0,0.2,0,0.4,0.1,0.5c0.2,0.5,0.7,0.8,1.2,0.8C-5.6,8.8-5,8.2-5,7.4V6.8V5.6z"/>
				</g>
				<g id="g28" transform="translate(6,30)">
					<path id="path30" class="st2" d="M-2,2c0,0.7,0.6,1.3,1.3,1.3S0.7,2.7,0.7,2v-6v-1.3v-2c0-0.4,0.1-0.8,0.4-1.2c0,0,0,0,0.1-0.1
						c0.1-0.1,0.1-0.2,0.2-0.2c0,0,0,0,0.1-0.1C1.5-8.9,1.6-9,1.7-9c0,0,0.1-0.1,0.1-0.1c0.1,0,0.2-0.1,0.3-0.1c0,0,0.1,0,0.1,0
						c0.1,0,0.3-0.1,0.5-0.1c0.2,0,0.3,0,0.5,0.1c0.1,0,0.1,0,0.1,0c0.1,0,0.2,0.1,0.3,0.1c0.1,0,0.1,0.1,0.2,0.1
						C3.8-9,3.9-8.9,4-8.8c0.1,0.1,0.3,0.3,0.4,0.4c0,0,0,0,0,0c0.1-0.1,0.3-0.3,1-0.3H7c-1.2-0.9-2-2.7-2-4.7
						c0-0.2,0.1-0.3,0.3-0.3s0.3,0.1,0.3,0.3c0,2.6,1.5,4.7,3.3,4.7H9c0.2,0,0.3,0.1,0.3,0.3S9.2-8,9-8H8H5.3C4.6-8,4-7.4,4-6.7
						s0.6,1.3,1.3,1.3h5.3c0.6,0,1-0.4,1.1-0.7c0.1-0.1,0.1-0.3,0.1-0.3l0.7-2.4c0.1-0.2,0.3-1.2,0.3-1.5c0-3.2-3.1-6.5-6.9-6.5
						c-4.4,0-8,3.5-8,8C-2-8.7-2,2-2,2"/>
				</g>
				<g id="g32" transform="translate(20,20)">
					<path id="path34" class="st2" d="M-6.7,5.3h-2c-0.2,0-0.5,0-0.7-0.1V6v1.3c0,0.2,0,0.4,0.1,0.5C-9,8.3-8.5,8.7-8,8.7
						c0.7,0,1.3-0.6,1.3-1.3V6V5.3z"/>
				</g>
				<g id="g36" transform="translate(21,20)">
					<path id="path38" class="st2" d="M-7,5.3V14c0,0.2,0,0.4,0.1,0.5c0.2,0.5,0.7,0.8,1.2,0.8c0.7,0,1.3-0.6,1.3-1.3V6V5.3H-5H-7z"
						/>
				</g>
			</g>
		</g>
	</g>
</g>
</svg>
