<?xml version="1.0" encoding="utf-8"?>
<!-- Generator: Adobe Illustrator 20.1.0, SVG Export Plug-In . SVG Version: 6.00 Build 0)  -->
<svg version="1.1" id="Layer_1" xmlns="http://www.w3.org/2000/svg" xmlns:xlink="http://www.w3.org/1999/xlink" x="0px" y="0px"
	 viewBox="0 0 600 600" style="enable-background:new 0 0 600 600;" xml:space="preserve">
<style type="text/css">
	.st0{fill:#9BD2CA;}
	.st1{fill:#CCAA41;}
	.st2{fill:#030504;}
	.st3{fill:#DDB84C;}
	.st4{fill:#D8D2CE;}
	.st5{fill:#181818;}
	.st6{fill:#0E0908;}
	.st7{fill:#F4F2F3;stroke:#F4F2F3;stroke-width:0.25;stroke-miterlimit:10;}
	.st8{fill:none;stroke:#F4F2F3;stroke-width:0.25;stroke-miterlimit:10;}
</style>
<rect x="-0.1" y="1.4" class="st0" width="600" height="600"/>
<path class="st1" d="M394.8,547.8"/>
<ellipse cx="307.6" cy="283.3" rx="13.6" ry="151.4"/>
<ellipse class="st2" cx="307.6" cy="545.8" rx="96" ry="24.1"/>
<path class="st3" d="M324.9,160.9c-2.6-8.5-4.6-28.2-15.9-29c0,44.6,0,89.2,0,133.8c0,29.8,0,59.7,0,89.5c0,3.4-0.8,9.6-1.3,15.9
	c-0.5-6.3-1.3-12.5-1.3-15.9c0-29.8,0-59.7,0-89.5c0-44.6,0-89.2,0-133.8c-11.3,0.8-13.3,20.4-15.9,29c-7,22.6-14.5,45.2-23.4,67.1
	c-13.2,32.4-49.1,66.3-45.6,103.4c1.6,17,4.7,33.9,8.3,50.6c0.9,4.4,1.1,8.9,2,12.6c-0.1,0.4-0.1,0.9-0.1,1.3
	c1.5,14.8,7.2,70.7,6.9,90.9c-0.2,10.7,0.5,34.4,1.2,57.7c17.4,4.4,41.4,7.1,67.9,7.1c25.7,0,49.1-2.5,66.3-6.7
	c0.8-23.5,1.4-47.3,1.2-58.1c-0.3-18.9,4.7-69.5,6.6-87.8c2.6-3.9,2.5-10.7,3.9-17.1c3.5-16.7,6.7-33.6,8.3-50.6
	c3.5-37.2-32.4-71-45.6-103.4C339.4,206.1,331.9,183.6,324.9,160.9z"/>
<ellipse cx="307.6" cy="342.3" rx="13.6" ry="92.4"/>
<path class="st4" d="M368.2,546.4l15.4-204.9c0-0.1,0-0.1,0-0.2c0.3-1.4,0.3-14.8-16.8-28.6c-22.5-18.2-46-48.8-54.7-62.9
	c-0.8-1.3-3.1-1.4-3.1,0.1l0.4,188.3l-1.7,4.9l-1.5-4.9l0.4-188.4c0-1.5-2.6-1.3-3.3,0c-8.7,14.1-32.2,44.7-54.7,62.9
	c-17.2,13.9-17.1,27.2-16.8,28.6c0,0.1,0,0.1,0,0.2l15.4,204.9c16.5,3.4,37.6,5.4,60.5,5.4C330.6,551.8,351.6,549.8,368.2,546.4z"/>
<circle cx="307.6" cy="434.7" r="10.3"/>
<g>
	<path class="st5" d="M4.3,198.9c0,0,2,0,5.7-0.1c0.9,0,2,0,3.1-0.1c1.1-0.1,2.4-0.2,3.7-0.3c1.3-0.1,2.8-0.2,4.3-0.4
		c1.5-0.2,3.1-0.4,4.8-0.7c0.9-0.1,1.7-0.2,2.6-0.4c0.9-0.1,1.8-0.3,2.7-0.5c1.9-0.4,3.8-0.8,5.9-1.2c2-0.5,4.1-1,6.3-1.6
		c0.5-0.1,1.1-0.3,1.6-0.4c0.5-0.2,1.1-0.3,1.6-0.5c1.1-0.3,2.2-0.7,3.4-1.1c9.1-3,19.1-7.2,29.3-13.1c1.3-0.8,2.6-1.4,3.8-2.3
		c1.3-0.8,2.5-1.6,3.8-2.5c2.6-1.6,5-3.6,7.6-5.4c1.3-0.9,2.5-2,3.7-3c1.2-1,2.5-2.1,3.8-3.1c1.2-1.1,2.4-2.2,3.6-3.3
		c1.2-1.1,2.5-2.2,3.6-3.5c2.3-2.4,4.7-4.8,6.9-7.5c1.1-1.3,2.3-2.6,3.3-3.9l0.8-1l0.7-1c0.5-0.7,1-1.4,1.4-2.1
		c1.9-2.9,3.4-6,4.5-9.2c0.6-1.6,0.9-3.3,1.1-4.9l0.1-1.2c0-0.4,0-0.8,0-1.2l-0.1-1.2l-0.2-1.2l-0.1-0.6l-0.2-0.6l-0.4-1.1l-0.5-1
		c-0.1-0.4-0.4-0.7-0.6-1l-0.6-0.9c-0.3-0.4-0.6-0.7-0.9-1c-0.5-0.5-1.2-1.1-1.8-1.6c-2.7-2-6.1-3.3-9.6-4.6
		c-3.4-1.3-6.9-2.3-9.7-1.6c-0.3,0.1-0.7,0.2-1,0.3l-0.2,0.1l-0.1,0.1c0,0-0.1,0.1,0,0c-0.2,0.1-0.5,0.3-0.5,0.3
		c-0.5,0.3-1.1,0.8-1.6,1.4c-0.5,0.6-1,1.2-1.4,2c-0.2,0.4-0.4,0.7-0.6,1.1l-0.3,0.6l-0.2,0.5c-3,6.6-3.5,14.1-1.8,21.2
		c0.9,3.5,2.3,6.9,4.2,10c0.5,0.8,0.9,1.5,1.5,2.2c0.6,0.7,1.1,1.4,1.7,2.1c0.6,0.7,1.2,1.3,1.9,1.9l1,0.9l0.1,0.1c0,0,0.2,0.2,0,0
		l0.3,0.2l0.6,0.4l2.4,1.8l2.2,1.3c0.4,0.2,0.7,0.4,1.1,0.6l1.2,0.5l1.2,0.5c0.4,0.2,0.8,0.4,1.3,0.5l2.6,0.8
		c0.9,0.3,1.8,0.4,2.7,0.6l1.3,0.3c0.5,0.1,0.9,0.1,1.4,0.1c0.9,0.1,1.8,0.2,2.7,0.3c1.8,0,3.7,0.1,5.5-0.1c1.8-0.1,3.7-0.4,5.5-0.6
		c3.6-0.7,7.2-1.5,10.7-2.8c1.8-0.6,3.4-1.3,5.1-2c0.8-0.4,1.7-0.8,2.5-1.2c0.8-0.4,1.7-0.8,2.4-1.3l2.4-1.3c0.8-0.5,1.5-1,2.3-1.5
		l1.1-0.7l0.2-0.1l0.3-0.2l0.6-0.4l2.3-1.7c2.9-2.2,5.8-4.4,8.5-6.9c2.8-2.4,5.5-4.9,8.2-7.4c10.7-10,20.9-20.6,32.5-28.5
		c5.8-4,11.7-7.4,17.7-10.2c6-2.8,12-5,17.9-6.6c5.9-1.7,12-2.6,17.8-2.1c1.5,0.1,2.9,0.3,4.3,0.6l1,0.2l0.3,0.1l0.3,0.1l0.1,0
		l0.5,0.2c0.6,0.2,1.2,0.4,1.8,0.6l0.9,0.3l1,0.4c0.6,0.3,1.3,0.6,1.9,0.9c0.7,0.3,1.2,0.7,1.8,1c0.6,0.3,1.1,0.7,1.7,1
		c4.3,2.9,7.5,6.5,10,10.1c2.5,3.6,4.2,7.1,5.7,10.3c2.7,6.5,4,11.9,4.8,15.5c0.4,1.8,0.6,3.2,0.8,4.2c0.2,0.9,0.2,1.4,0.2,1.4
		l-0.8,0.2c0,0-0.1-0.5-0.4-1.4c-0.3-0.9-0.6-2.3-1.2-4c-1.1-3.5-2.9-8.6-6.1-14.7c-1.6-3-3.6-6.2-6.1-9.3c-2.5-3.1-5.6-6.2-9.5-8.4
		c-0.5-0.3-1-0.5-1.5-0.8c-0.5-0.2-1-0.6-1.5-0.7c-0.5-0.2-1-0.4-1.5-0.6l-0.8-0.3l-0.9-0.2c-0.6-0.2-1.2-0.3-1.9-0.5l-0.5-0.1
		l-0.1,0c0.3,0.1,0,0,0,0l-0.2,0L274,90c-1.2-0.2-2.4-0.3-3.6-0.3c-5-0.1-10.3,1-15.7,2.7c-5.5,1.8-11,4.1-16.6,6.9
		c-5.5,2.8-11,6.1-16.3,10c-10.6,7.8-20.4,18.1-31.3,28.3c-2.7,2.6-5.6,5.1-8.5,7.6c-2.9,2.5-6,4.9-9.3,7.2l-2.4,1.6l-0.6,0.4
		l-0.3,0.2c0,0-0.2,0.2-0.2,0.1l-0.2,0.1l-1.3,0.8c-0.9,0.5-1.7,1.1-2.6,1.6l-2.7,1.4c-0.9,0.5-1.8,0.9-2.7,1.3
		c-0.9,0.4-1.8,0.9-2.8,1.2c-1.9,0.7-3.8,1.5-5.8,2.1c-3.9,1.3-7.9,2.2-12,2.8c-4.1,0.6-8.3,0.7-12.5,0.5c-1.1-0.1-2.1-0.2-3.2-0.4
		c-0.5-0.1-1.1-0.1-1.6-0.2l-1.6-0.3c-1-0.2-2.1-0.4-3.1-0.7l-3.1-1c-0.5-0.2-1-0.4-1.5-0.6l-1.5-0.7l-1.5-0.7
		c-0.5-0.2-1-0.6-1.5-0.8c-1-0.6-1.9-1.2-2.9-1.7l-2.4-1.8c-7-5.5-11.3-13.4-13.2-21.7c-0.9-4.1-1.2-8.4-0.8-12.6
		c0.2-2.1,0.6-4.2,1.1-6.2c0.1-0.5,0.3-1,0.5-1.6l0.5-1.6c0.1-0.3,0.2-0.5,0.3-0.8l0.3-0.7l0.6-1.3l0.4-0.8l0.4-0.7
		c0.3-0.5,0.5-0.9,0.8-1.4c0.6-0.9,1.2-1.9,2.1-2.7c0.8-0.9,1.7-1.6,2.8-2.4c0.3-0.2,0.5-0.3,0.7-0.4c0.2-0.1,0.2-0.1,0.3-0.1
		l0.2-0.1l0.4-0.2c0.6-0.2,1.2-0.4,1.8-0.6c2.4-0.6,4.8-0.3,6.9,0.1c2.1,0.5,4,1.2,5.9,1.9c3.5,1.4,7.3,2.9,10.7,5.5
		c0.9,0.6,1.6,1.3,2.4,2.2c0.4,0.5,0.7,0.8,1,1.2c0,0,0.2,0.2,0.2,0.2l0.1,0.2l0.2,0.3l0.5,0.7c0.7,0.9,1,1.9,1.5,2.9
		c0.2,0.5,0.3,1,0.5,1.5l0.2,0.8l0.1,0.8c0.1,0.5,0.2,1,0.3,1.6l0.1,1.6c0,0.5,0,1,0,1.5c0,0.5-0.1,1-0.1,1.5c-0.3,2-0.7,4-1.4,5.8
		c-1.3,3.7-3.1,7-5.1,10.1c-0.5,0.8-1,1.5-1.6,2.3l-0.8,1.1l-0.8,1c-1.2,1.4-2.4,2.7-3.6,4c-2.3,2.7-4.8,5.1-7.3,7.5
		c-1.2,1.2-2.5,2.3-3.8,3.5c-1.3,1.1-2.5,2.2-3.8,3.3c-1.3,1-2.6,2.1-3.9,3.1c-1.3,1-2.6,2.1-3.9,2.9c-2.7,1.8-5.2,3.7-7.9,5.3
		c-1.3,0.8-2.6,1.6-3.9,2.4c-1.3,0.8-2.7,1.5-4,2.2c-10.5,5.8-20.8,9.8-30.1,12.6c-1.2,0.3-2.3,0.7-3.4,1c-0.6,0.2-1.1,0.3-1.7,0.5
		c-0.6,0.1-1.1,0.3-1.7,0.4c-2.2,0.5-4.3,1-6.4,1.5c-2.1,0.4-4.1,0.7-5.9,1c-0.9,0.2-1.9,0.3-2.8,0.4c-0.9,0.1-1.8,0.2-2.7,0.3
		c-1.7,0.2-3.4,0.4-4.9,0.5c-1.5,0.1-3,0.2-4.4,0.3c-1.3,0.1-2.6,0.1-3.7,0.2c-1.1,0.1-2.2,0-3.1,0c-3.7,0-5.7,0-5.7,0L4.3,198.9z"
		/>
</g>
<g>
	<path class="st6" d="M403.4,556.2c0.2-0.7,0.3-1.4,0.3-2.1L403.4,556.2z"/>
	<path class="st6" d="M211.9,556.2l-0.3-2.1C211.6,554.8,211.7,555.5,211.9,556.2z"/>
	<path class="st6" d="M396.5,601.7l6.8-45.5c-4,13.4-45.3,23.8-95.7,23.8c-50.4,0-91.7-10.5-95.7-23.8l6.9,45.5H396.5z"/>
</g>
<g>
	<path class="st7" d="M271.5,32.5c1.7-0.4,4.4-0.6,7.2-0.6c3.9,0,6.4,0.7,8.3,2.2c1.6,1.2,2.5,3,2.5,5.4c0,2.9-1.9,5.5-5.1,6.7v0.1
		c2.9,0.7,6.3,3.1,6.3,7.6c0,2.6-1,4.6-2.6,6.1c-2.1,1.9-5.5,2.8-10.5,2.8c-2.7,0-4.8-0.2-6.1-0.4V32.5z M275.4,44.9h3.6
		c4.1,0,6.6-2.2,6.6-5.1c0-3.6-2.7-5-6.7-5c-1.8,0-2.8,0.1-3.5,0.3V44.9z M275.4,59.4c0.8,0.1,1.9,0.2,3.3,0.2c4,0,7.8-1.5,7.8-5.9
		c0-4.1-3.6-5.8-7.8-5.8h-3.2V59.4z"/>
	<path class="st7" d="M301.2,32h3.9v27h13v3.3h-16.9V32z"/>
	<path class="st7" d="M352.1,46.9c0,10.4-6.3,16-14.1,16c-8,0-13.6-6.2-13.6-15.4c0-9.6,6-15.9,14.1-15.9
		C346.7,31.6,352.1,37.9,352.1,46.9z M328.5,47.4c0,6.5,3.5,12.3,9.7,12.3c6.2,0,9.7-5.7,9.7-12.6c0-6-3.1-12.3-9.7-12.3
		C331.8,34.7,328.5,40.7,328.5,47.4z"/>
	<path class="st7" d="M385.6,61c-1.8,0.6-5.2,1.7-9.3,1.7c-4.6,0-8.4-1.2-11.3-4c-2.6-2.5-4.2-6.6-4.2-11.3c0-9,6.3-15.7,16.4-15.7
		c3.5,0,6.3,0.8,7.6,1.4l-0.9,3.2c-1.6-0.7-3.6-1.3-6.7-1.3c-7.4,0-12.2,4.6-12.2,12.2c0,7.7,4.6,12.2,11.7,12.2
		c2.6,0,4.3-0.4,5.2-0.8v-9h-6.2v-3.1h10V61z"/>
</g>
<path d="M587.5,221.3c-8.1,0.8-15.3,4.9-13.7,13.1c1.1,5.3,8,10.6,13.5,13c2.4,1,9.7-4.3,11.5-8.2c1.7-3.6-1-9.2-1.8-13.9
	C593.9,223.9,590.7,222.6,587.5,221.3z"/>
<path d="M599.9,460.1c-0.4-0.3-0.9-0.8-1.3-1.3c-1.9,4.6-5.5,4.1-8.9,3.8c-2.7-0.2-4.1,0.5-3.8,3.5c0.4,2.8-1.3,4.2-3.6,5.1
	c-1.3,0.5-2.6,0.7-3.9,1.1c2.5,3.6,2.4,3.5,0.2,7.5c-0.7,1.3-1.6,2.9-1.4,4.2c1.3,6.4,3.3,12.5,10.2,15.1c4.1,1.5,8.2,3,12.3,4.6
	V460.1z"/>
<path d="M599.9,291c-1.4-0.4-2.8-0.8-4.2-1.1c-20.6-5.6-45.9,2.5-57.5,20.3C528,325.6,517,341.6,525,362c0.9,2.2,1,4.8,0.8,7.2
	c-0.6,7.6,2.4,11.7,7,11.4c3.9,5.4,6,11.5,9,12c10.4,1.7,20.3,2.4,20.3,15.7c2.9-3.3,5.5-8.8,8.5-9c3.8-0.3,8,3.6,14.5,7.1
	c4.6-0.8,9.2-7.3,14.8-9.5V291z"/>
<line class="st8" x1="-20.5" y1="199.4" x2="30.5" y2="199.4"/>
</svg>
