<?xml version="1.0" encoding="utf-8"?>
<!-- Generator: Adobe Illustrator 20.1.0, SVG Export Plug-In . SVG Version: 6.00 Build 0)  -->
<svg version="1.1" id="Layer_1" xmlns="http://www.w3.org/2000/svg" xmlns:xlink="http://www.w3.org/1999/xlink" x="0px" y="0px"
	 viewBox="0 0 600 600" style="enable-background:new 0 0 600 600;" xml:space="preserve">
<style type="text/css">
	.st0{fill:#D8D2CE;}
	.st1{fill:#FFFFFF;}
</style>
<rect class="st0" width="600.2" height="600.2"/>
<g>
	<g>
		<path class="st1" d="M70.3,52.9l-3.2,9.6H63L73.4,32h4.8l10.4,30.5h-4.2l-3.3-9.6H70.3z M80.3,49.8l-3-8.8c-0.7-2-1.1-3.8-1.6-5.6
			h-0.1c-0.5,1.8-1,3.7-1.5,5.5l-3,8.8H80.3z"/>
		<path class="st1" d="M88.8,62.6h-4.5L81,53H70.4l-3.2,9.6h-4.3l10.5-30.8h4.9L88.8,62.6z M84.5,62.4h3.9L78.1,32.1h-4.6L63.2,62.4
			H67l3.2-9.6h11L84.5,62.4z M80.5,49.9h-9.5l3-9c0.5-1.6,1-3.4,1.5-5.5l0-0.1h0.3l0.1,0.4c0.4,1.7,0.9,3.4,1.5,5.2L80.5,49.9z
			 M71.3,49.7h8.8l-2.9-8.6c-0.6-1.9-1.1-3.6-1.5-5.3l0,0c-0.5,2-1,3.7-1.5,5.2L71.3,49.7z"/>
	</g>
	<g>
		<path class="st1" d="M98.5,32.3c1.9-0.3,4.4-0.6,7.6-0.6c3.9,0,6.7,0.9,8.6,2.5c1.7,1.4,2.7,3.7,2.7,6.4c0,2.8-0.8,4.9-2.4,6.5
			c-2.1,2.2-5.5,3.4-9.3,3.4c-1.2,0-2.3,0-3.2-0.3v12.2h-3.9V32.3z M102.4,47.1c0.9,0.2,1.9,0.3,3.3,0.3c4.8,0,7.7-2.3,7.7-6.5
			c0-4-2.9-6-7.2-6c-1.7,0-3,0.1-3.7,0.3V47.1z"/>
		<path class="st1" d="M102.6,62.6h-4.2V32.2l0.1,0c2.4-0.4,4.9-0.6,7.6-0.6c3.8,0,6.7,0.9,8.6,2.6c1.7,1.5,2.7,3.8,2.7,6.5
			c0,2.8-0.8,5-2.4,6.6c-2.1,2.2-5.4,3.4-9.4,3.4c-1,0-2.1,0-3-0.2V62.6z M98.6,62.4h3.7V50.1l0.2,0c0.9,0.2,2.1,0.3,3.1,0.3
			c4,0,7.2-1.2,9.2-3.3c1.5-1.6,2.3-3.8,2.3-6.4c0-2.6-0.9-4.8-2.6-6.3c-1.8-1.7-4.7-2.5-8.5-2.5c-2.7,0-5.1,0.2-7.4,0.6V62.4z
			 M105.7,47.5c-1.4,0-2.5-0.1-3.3-0.3l-0.1,0V35.1l0.1,0c0.8-0.2,2.2-0.3,3.7-0.3c4.7,0,7.3,2.2,7.3,6.1
			C113.5,45.1,110.6,47.5,105.7,47.5z M102.6,47c0.8,0.2,1.8,0.3,3.1,0.3c4.8,0,7.5-2.3,7.5-6.4c0-3.8-2.5-5.9-7.1-5.9
			c-1.5,0-2.8,0.1-3.6,0.3V47z"/>
	</g>
	<g>
		<path class="st1" d="M128,32.4c2-0.4,4.8-0.6,7.6-0.6c4.2,0,6.9,0.8,8.8,2.5c1.5,1.4,2.4,3.4,2.4,5.8c0,4-2.5,6.7-5.7,7.8V48
			c2.4,0.8,3.8,3,4.5,6.2c1,4.3,1.7,7.2,2.4,8.4h-4.1c-0.5-0.9-1.2-3.5-2-7.3c-0.9-4.2-2.5-5.8-6.1-5.9H132v13.2H128V32.4z
			 M132,46.3h4c4.2,0,6.9-2.3,6.9-5.8c0-3.9-2.9-5.7-7-5.7c-1.9,0-3.3,0.2-3.9,0.4V46.3z"/>
		<path class="st1" d="M148.1,62.6h-4.4l0-0.1c-0.5-0.8-1.1-3-2.1-7.3c-0.9-4.2-2.5-5.7-6-5.8h-3.6v13.2h-4.2V32.3l0.1,0
			c1.9-0.4,4.8-0.6,7.6-0.6c4.2,0,7,0.8,8.9,2.5c1.6,1.4,2.4,3.5,2.4,5.9c0,3.7-2.1,6.6-5.7,7.9c2.2,0.8,3.7,2.9,4.4,6.2
			c0.9,4,1.7,7.2,2.3,8.3L148.1,62.6z M143.9,62.4h3.8c-0.6-1.3-1.3-4.3-2.3-8.2c-0.8-3.3-2.2-5.3-4.4-6.1l-0.1,0v-0.3l0.1,0
			c3.5-1.2,5.7-4.1,5.7-7.7c0-2.3-0.8-4.4-2.4-5.7c-1.9-1.7-4.6-2.5-8.7-2.5c-2.7,0-5.5,0.2-7.4,0.6v29.9h3.7V49.1h3.8
			c3.6,0.1,5.3,1.8,6.2,6C142.9,59.4,143.5,61.6,143.9,62.4z M136,46.4h-4.2V35.1l0.1,0c0.6-0.2,2-0.4,3.9-0.4
			c4.6,0.1,7.1,2.1,7.1,5.8C143,44.1,140.2,46.4,136,46.4z M132.1,46.2h3.9c4.1,0,6.8-2.2,6.8-5.7c0-3.5-2.4-5.5-6.9-5.6
			c-1.8,0-3.1,0.2-3.8,0.3V46.2z"/>
	</g>
	<g>
		<path class="st1" d="M161.7,32v30.5h-3.9V32H161.7z"/>
		<path class="st1" d="M161.9,62.6h-4.2V31.9h4.2V62.6z M157.9,62.4h3.7V32.1h-3.7V62.4z"/>
	</g>
	<g>
		<path class="st1" d="M195.4,61.5c-1.4,0.7-4.3,1.4-8.1,1.4c-8.6,0-15.1-5.4-15.1-15.4c0-9.6,6.5-16,15.9-16c3.8,0,6.2,0.8,7.2,1.4
			l-1,3.2c-1.5-0.7-3.6-1.3-6.2-1.3c-7.2,0-11.9,4.6-11.9,12.6c0,7.5,4.3,12.3,11.7,12.3c2.4,0,4.8-0.5,6.4-1.3L195.4,61.5z"/>
		<path class="st1" d="M187.3,63.1c-9.2,0-15.2-6.1-15.2-15.6c0-9.7,6.5-16.2,16.1-16.2c4.3,0,6.7,1.1,7.3,1.4l0.1,0l-1,3.5
			l-0.1-0.1c-1.7-0.8-3.8-1.3-6.1-1.3c-7.3,0-11.8,4.8-11.8,12.5c0,7.6,4.3,12.1,11.6,12.1c2.3,0,4.8-0.5,6.4-1.3l0.1-0.1l0.9,3.4
			l-0.1,0C194,62.3,191.2,63.1,187.3,63.1z M188.2,31.6c-9.5,0-15.8,6.4-15.8,15.9c0,9.3,5.9,15.3,15,15.3c3.7,0,6.5-0.7,7.9-1.4
			l-0.8-2.9c-1.6,0.8-4,1.2-6.3,1.2c-7.3,0-11.9-4.7-11.9-12.4c0-7.8,4.6-12.7,12-12.7c2.2,0,4.4,0.4,6.1,1.2l0.9-3
			C194.6,32.5,192.3,31.6,188.2,31.6z"/>
	</g>
	<g>
		<path class="st1" d="M209.7,32v30.5h-3.9V32H209.7z"/>
		<path class="st1" d="M209.8,62.6h-4.2V31.9h4.2V62.6z M205.9,62.4h3.7V32.1h-3.7V62.4z"/>
	</g>
	<g>
		<path class="st1" d="M227.8,35.3h-9.3V32h22.6v3.4h-9.3v27.2h-4V35.3z"/>
		<path class="st1" d="M231.9,62.6h-4.2V35.5h-9.3v-3.6h22.8v3.6h-9.3V62.6z M227.9,62.4h3.7V35.2h9.3v-3.1h-22.3v3.1h9.3V62.4z"/>
	</g>
	<g>
		<path class="st1" d="M258,62.5V49.5L248.4,32h4.5l4.3,8.4c1.2,2.3,2.1,4.2,3,6.3h0.1c0.9-2,1.9-4,3.1-6.3l4.4-8.4h4.5L262,49.5v13
			H258z"/>
		<path class="st1" d="M262.1,62.6h-4.2v-13l-9.7-17.7h4.8l0,0.1l4.3,8.4c1.2,2.4,2.1,4.2,3,6.1c0.7-1.7,1.6-3.4,2.6-5.3l0.4-0.9
			l4.4-8.5h4.8l-10.3,17.7V62.6z M258.1,62.4h3.7V49.5L272,32.1h-4.2l-4.8,9.2c-1,2-1.9,3.7-2.6,5.4l0,0.1h-0.3l0-0.1
			c-0.9-2-1.8-3.8-3-6.3l-4.3-8.4h-4.2l9.6,17.4V62.4z"/>
	</g>
	<g>
		<path class="st1" d="M321.9,49.1c-0.2-4.3-0.5-9.4-0.5-13.2h-0.1c-1,3.6-2.3,7.4-3.8,11.6l-5.4,14.8h-3l-4.9-14.5
			c-1.4-4.3-2.7-8.2-3.5-11.9h-0.1c-0.1,3.8-0.3,8.9-0.6,13.5l-0.8,13.1h-3.8l2.1-30.5h5l5.2,14.8c1.3,3.8,2.3,7.1,3.1,10.3h0.1
			c0.8-3.1,1.9-6.4,3.2-10.3l5.4-14.8h5l1.9,30.5h-3.8L321.9,49.1z"/>
		<path class="st1" d="M326.6,62.6h-4.1L321.8,49c-0.2-4-0.5-9-0.5-12.7c-1,3.4-2.2,7.1-3.7,11.2l-5.4,14.9H309l0-0.1L304,47.8
			c-1.6-4.7-2.6-8.2-3.4-11.3c-0.1,3.7-0.3,8.5-0.6,12.9l-0.8,13.2h-4l2.1-30.8h5.2l0,0.1l5.2,14.8c1.4,4.2,2.3,7.3,3,10.1
			c0.7-2.7,1.7-5.9,3.2-10.1l5.5-14.8h5.2l0,0.1L326.6,62.6z M322.8,62.4h3.6l-1.9-30.3h-4.8l-5.4,14.7c-1.5,4.3-2.5,7.5-3.2,10.3
			l0,0.1h-0.3l0-0.1c-0.7-2.8-1.6-6-3.1-10.3l-5.2-14.7h-4.8l-2.1,30.3h3.5l0.8-13c0.3-4.7,0.5-9.7,0.6-13.5l0-0.1h0.3l0,0.1
			c0.8,3.2,1.9,6.9,3.5,11.9l4.9,14.4h2.8l5.4-14.7c1.6-4.3,2.8-8.1,3.8-11.6l0-0.1h0.4l0,0.1c0,3.8,0.2,8.9,0.4,13.1l0,0.1
			L322.8,62.4z"/>
	</g>
	<g>
		<path class="st1" d="M342.5,52.9l-3.2,9.6h-4.1L345.6,32h4.8l10.4,30.5h-4.2l-3.3-9.6H342.5z M352.5,49.8l-3-8.8
			c-0.7-2-1.1-3.8-1.6-5.6h-0.1c-0.5,1.8-1,3.7-1.5,5.5l-3,8.8H352.5z"/>
		<path class="st1" d="M361,62.6h-4.5l0-0.1l-3.2-9.5h-10.6l-3.2,9.6h-4.3l0.1-0.2l10.4-30.6h4.9l0,0.1L361,62.6z M356.7,62.4h3.9
			l-10.3-30.3h-4.6l-10.3,30.3h3.8l3.2-9.6h11l0,0.1L356.7,62.4z M352.7,49.9h-9.5l3-9c0.5-1.6,1-3.4,1.5-5.5l0-0.1h0.3l0.1,0.4
			c0.4,1.7,0.9,3.4,1.5,5.3L352.7,49.9z M343.5,49.7h8.8l-2.9-8.6c-0.6-1.9-1.1-3.6-1.5-5.3c-0.5,2-1,3.7-1.5,5.2L343.5,49.7z"/>
	</g>
	<g>
		<path class="st1" d="M393.2,61.1c-1.8,0.6-5.3,1.7-9.4,1.7c-4.6,0-8.4-1.2-11.4-4c-2.6-2.5-4.3-6.6-4.3-11.4
			c0-9.1,6.3-15.8,16.5-15.8c3.5,0,6.3,0.8,7.6,1.4l-1,3.2c-1.6-0.7-3.7-1.3-6.7-1.3c-7.4,0-12.3,4.6-12.3,12.3
			c0,7.7,4.7,12.3,11.8,12.3c2.6,0,4.3-0.4,5.3-0.8v-9.1h-6.2v-3.2h10.1V61.1z"/>
		<path class="st1" d="M383.9,62.9c-4.9,0-8.6-1.3-11.5-4.1c-2.7-2.6-4.3-6.8-4.3-11.5c0-9.5,6.7-15.9,16.6-15.9
			c3.5,0,6.3,0.8,7.7,1.4l0.1,0l-1,3.5l-0.1-0.1c-2-0.9-4.1-1.3-6.7-1.3c-7.5,0-12.1,4.7-12.1,12.1c0,7.5,4.5,12.2,11.6,12.2
			c2.2,0,4.1-0.3,5.1-0.8v-8.9h-6.2v-3.4h10.3v14.9l-0.1,0C391.1,62,387.8,62.9,383.9,62.9z M384.7,31.8c-9.8,0-16.4,6.3-16.4,15.6
			c0,4.6,1.5,8.7,4.2,11.3c2.8,2.7,6.5,4,11.3,4c3.8,0,7.1-0.9,9.2-1.6V46.6h-9.8v2.9h6.2v9.3l-0.1,0c-1.1,0.5-3,0.8-5.3,0.8
			c-7.3,0-11.9-4.8-11.9-12.4c0-7.6,4.7-12.4,12.4-12.4c2.6,0,4.6,0.4,6.7,1.3l0.9-3C390.8,32.5,388.1,31.8,384.7,31.8z"/>
	</g>
	<g>
		<path class="st1" d="M409.6,52.9l-3.2,9.6h-4.1L412.8,32h4.8l10.4,30.5h-4.2l-3.3-9.6H409.6z M419.6,49.8l-3-8.8
			c-0.7-2-1.1-3.8-1.6-5.6H415c-0.5,1.8-1,3.7-1.5,5.5l-3,8.8H419.6z"/>
		<path class="st1" d="M428.1,62.6h-4.5l0-0.1l-3.2-9.5h-10.6l-3.2,9.6h-4.3l0.1-0.2l10.4-30.6h4.9l0,0.1L428.1,62.6z M423.8,62.4
			h3.9l-10.3-30.3h-4.6l-10.3,30.3h3.8l3.2-9.6h11l0,0.1L423.8,62.4z M419.8,49.9h-9.5l3-9c0.5-1.6,1-3.4,1.5-5.5l0-0.1h0.3l0.1,0.4
			c0.4,1.7,0.9,3.4,1.5,5.3L419.8,49.9z M410.6,49.7h8.8l-2.9-8.6c-0.6-1.9-1.1-3.6-1.5-5.3c-0.5,2-1,3.7-1.5,5.2L410.6,49.7z"/>
	</g>
	<g>
		<path class="st1" d="M435.8,60.2l16.9-24.8v-0.1h-15.5V32h20.6v2.4L441,59v0.1H458v3.3h-22.3V60.2z"/>
		<path class="st1" d="M458.2,62.6h-22.5v-2.5l0,0l16.9-24.7h-15.5v-3.6h20.8v2.6l0,0l-16.8,24.6h17V62.6z M435.9,62.4h22v-3.1
			h-17.1V59l0,0l16.8-24.6v-2.2h-20.3v3.1h15.5v0.3l0,0l-16.9,24.7V62.4z"/>
	</g>
	<g>
		<path class="st1" d="M472.3,32v30.5h-3.9V32H472.3z"/>
		<path class="st1" d="M472.4,62.6h-4.2V31.9h4.2V62.6z M468.4,62.4h3.7V32.1h-3.7V62.4z"/>
	</g>
	<g>
		<path class="st1" d="M484.6,62.5V32h4.3l9.8,15.4c2.3,3.6,4,6.8,5.5,9.9l0.1,0c-0.4-4.1-0.5-7.8-0.5-12.5V32h3.7v30.5h-4L493.8,47
			c-2.1-3.4-4.2-6.9-5.7-10.2l-0.1,0c0.2,3.8,0.3,7.5,0.3,12.6v13H484.6z"/>
		<path class="st1" d="M507.6,62.6h-4.2l0-0.1l-9.7-15.5c-2.5-4-4.3-7.1-5.6-9.9c0.2,3.7,0.3,7.3,0.3,12.3v13.2h-4V31.9h4.5l0,0.1
			l9.8,15.4c2.1,3.4,3.9,6.5,5.3,9.5c-0.3-4.1-0.4-7.8-0.4-12.1V31.9h4V62.6z M503.6,62.4h3.8V32.1h-3.5v12.6
			c0,4.5,0.1,8.3,0.5,12.5l0,0.1l-0.3,0.1l-0.1-0.1c-1.5-3.2-3.3-6.4-5.5-9.9l-9.7-15.4h-4.1v30.3h3.5V49.5c0-5.1-0.1-8.8-0.3-12.6
			l0-0.1l0.3-0.1l0,0.1c1.3,2.9,3.2,6.1,5.7,10.2L503.6,62.4z"/>
	</g>
	<g>
		<path class="st1" d="M535.6,48.2h-11.9v11H537v3.3h-17.2V32h16.5v3.3h-12.5v9.6h11.9V48.2z"/>
		<path class="st1" d="M537.1,62.6h-17.4V31.9h16.7v3.6h-12.5v9.4h11.9v3.5h-11.9v10.8h13.2V62.6z M519.9,62.4h16.9v-3.1h-13.2V48.1
			h11.9v-3h-11.9v-9.9h12.5v-3.1h-16.2V62.4z"/>
	</g>
</g>
<path d="M600.2,560.3c-7.4-3.7-14.8-7.3-22.3-11c1-0.9,1.4-1.3,1.8-1.7c-2.8-1.1-5.4-1.9-7.8-3.1c-1.9-1-2.7-2.4-1.2-4.7
	c1.3-2.1,1.6-4.8,2.6-7.1c1-2.3,1.9-4.8,3.6-6.6c2.9-3.2,3.1-3.3-0.4-6c-3-2.4-2.9-5,0.6-6.1c2.2-0.7,2-1.9,1.4-3.2
	c-0.6-1.4-1.5-2.8-2.5-4c-2.3-2.8-4.4-5.5-3.4-9.5c0.2-0.9-0.4-2-0.7-3.4c-3.7,1.8-7.2,5.1-10.4,0.9c-2.3-3-3.8-6.7-5.8-10.2
	c-1.5,0.6-3,1.4-4.6,1.7c-1,0.2-2.8-0.1-3-0.7c-1.4-4.3-3.9-3.1-6.8-1.8c-5.2,2.4-7.4,1.5-10-3.8c-0.4-0.9-0.9-1.7-1.3-2.5
	c-0.4,0.1-0.7,0.1-0.9,0.2c-7.9,5.4-15.8,10.6-25.3,12.6c-0.8,0.2-1.5,1.1-2.1,1.8c-4.9,5.3-9.5,10.7-14.6,15.7
	c-5.5,5.4-11.3,10.3-17.1,15.4c-2.1,1.9-2.3,3.8-1.2,6.5c2.7,6.5,2.5,6.7-4.3,8.6c-0.4,0.1-0.8,0.1-1,0.3c-1,0.9-1.8,1.8-2.7,2.7
	c1.1,0.4,2.2,1.1,3.4,1.2c3.5,0.1,4.7,1.2,3.4,4.4c-1.3,3.1-3.4,5.8-5.3,8.6c-1.2,1.9-2.7,3.6-4.1,5.3c0.2,0.3,0.4,0.6,0.6,0.9
	c2.7-0.6,5.3-1.2,8.9-2c1.1,3.6,2.7,7.3,3.2,11.2c0.2,1.5-2.1,3.2-2.9,5c-0.6,1.2-0.6,2.6-0.9,4c1.4,0,2.9,0.3,4.1-0.2
	c5.4-2.1,5.2-2,7.8,2.4c1.6,2.8-0.2,4.2-1.1,6.2c-0.5,1.1,0,2.8,0,4.2c1.3-0.3,2.6-0.4,3.8-0.8c1.4-0.5,2.8-1.2,4.2-1.8
	c0.6,1.7,1.5,3.4,1.7,5.1c0.2,1.7-0.2,3.5-0.4,5.3h1.8c0.7-0.9,1.4-1.8,2.2-2.5c1.1-0.8,2.7-1.8,3.8-1.5c0.8,0.2,1.5,2.1,1.9,3.3
	c0.1,0.2,0.1,0.4,0.1,0.7h31.2c1.1-0.3,2.1-0.6,3.2-0.8c2.8-0.8,5-0.5,6.8,0.8h15.2c0.4-1.2,0.7-2.5,1.1-3.7
	c4.6-14,11.5-26.6,23.7-35.6c2-1.5,3.6-1.7,6-0.7c5.3,2.4,10.7,4.5,16.1,6.6V560.3z"/>
<path d="M307,179.4c3.3,3.2,3.7,6.3,1,9.9c-0.6,0.8-1.9,1.8-2.4,1.6c-0.9-0.4-2.1-1.6-2.1-2.6c0-3,0.4-5.9,0.6-8.9
	C305.1,179.4,306,179.4,307,179.4z"/>
<path d="M192.1,226.9c2.9-1.5,4.5-0.3,5,3.2c-1.7-0.8-3.4-1.7-5-2.5C192.1,227.4,192.1,227.2,192.1,226.9z"/>
<path d="M384.9,270.8c-0.1,0.4-0.2,0.6-0.3,0.9c-3.1,7.6-8.7,9.3-16.2,7.4c-2.1-0.5-4.4-0.3-6.5-0.2c-2.9,0.1-5,1.8-5.5,4.5
	c-2.5,12.1-10.7,19.5-20.6,25.7c-0.6,0.4-1.3,0.7-1.9,1.1c-3.9,2-5.1,4-3.7,8.1c1.1,3.1,3,6.1,5,8.7c1.9,2.5,4.8,4.3,6.5,6.9
	c2.1,3,4.1,6.4,4.8,9.9c1,5.2-2,8.1-7.4,7.1c-3.2-0.6-6.3-2.3-9.1-4.2c-2.3-1.5-3.8-4.1-5.8-6c-1.6-1.6-3.4-3.2-5.3-4.4
	c-3.6-2.2-4.7-1.8-6,2.2c-1.5,4.4-4.1,7.3-8.6,9.2c-8.6,3.5-16.8,7.7-25.2,11.5c-1.8,0.8-3.8,1.3-6.2,2.1c0-5.5,0-10.5,0-16
	c-4.4,1.3-8.8-3.4-12.1,1.8c-5.1-1.3-4.4-6-5.9-10.5c-2.3,2.3-4.1,4.1-5.9,5.9c-0.7,0.7-1.1,1.7-1.7,2.3c-1.4,1.4-2.1,4.6-4.9,3
	c-3.1-1.8-3.3-5.2-0.7-7.8c1.1-1.1,2.7-1.5,4.1-2.3c0.7-0.4,1.9-0.8,2.1-1.5c3.8-10.9,7.3-21.9,11.1-32.8c1.3-3.6-0.2-5.3-3.3-5.7
	c-3.9-0.6-7.9-0.6-11.9-0.7c-5.3-0.1-10.5,0-15.8,0c0-0.5-0.1-1-0.1-1.5c2.3-0.4,4.5-1.1,6.8-1.2c5.6-0.3,6.8-5.3,9.4-8.7
	c0.3-0.3-0.1-1.4-0.5-2c-2.6-3.6-2.6-7.4-1.7-11.5c0.8-3.6,1.3-7.3,2-11.1c2.4,1.2,5.2,2.4,7.8,3.9c2.2,1.3,3.8,0.4,5.6-0.9
	c2-1.4,4.3-2.3,6.4-3.6c0.8-0.6,1.7-1.7,1.8-2.7c1.1-8.8-2.9-15.5-8.9-21.4c-0.8-0.8-1.5-1.7-2.2-2.6c0.9-0.7,1.7-1.5,2.7-2.1
	c1-0.6,2.1-1,3.6-1.7c2.3,3.3,4.5,6.9,7.1,10.1c3.4,4.1,7.1,7.9,10.8,11.7c1,1.1,2.4,2.1,4.1,0.4c0.3-0.4,1.7,0.1,2.5,0.4
	c1.1,0.3,2.1,0.8,3.1,1.2c0.3-1.2,0.7-2.4,0.9-3.7c0.1-0.8-0.1-1.7-0.1-2.5c5.2-0.7,5.2-0.7,5.1-6.2c-0.1-2.1-0.2-4.3-0.3-6.5
	c6.6,3.2,6.6,3.2,9.9-4.1c0.7,7,2.5,12.9,8.3,17.5c0.9-1.9,1.7-3.5,2.4-5.1c0.3,1.7,0.6,3.4,1,5.6c7.1-3.9,12.4-8.8,16-15.6
	c0.7-1.2,2.1-2,3.3-3c0.4,0.3,0.8,0.7,1.2,1c-0.6,1.5-1.2,3-1.9,4.5c-2,4.4-4.2,8.8-6,13.3c-1,2.6-3,5.3-0.4,8.3
	c0.6,0.6-0.3,2.4,0,3.5c0.4,1.3,1,3,2,3.7c1.6,1,2.7-0.1,3.6-1.8c0.4-0.8,2.6-1.7,3.2-1.3c12.9,8.5,27.6,8.8,42.2,9.2
	c1.8,0.1,3.7,0.1,5.5,0.2C384.1,270.5,384.4,270.6,384.9,270.8z"/>
<path d="M319.6,559.6c-1-2.9-2.5-5.6-3.6-8.4c-1.4-3.7-1.1-7.1,0.2-11c1-2.7,0.4-6.1-0.1-9.2c-0.3-2-2-2.9-4.5-3.4
	c-5.4-1.1-10.9-2.6-15.9-4.9c-4.7-2.2-8.8-5.6-13.2-8.4c-2.4-1.6-4.9-3.1-8.2-5.1c-0.4,2.6-0.5,4.4-1,6.2c-0.2,1-0.7,2.1-1.4,2.6
	c-0.5,0.4-2.2,0.1-2.5-0.4c-2.6-4.2-5.8-2.9-9.2-1.5c-5.4,2.2-10.8,4.5-16.9,3.8c-0.2,0-0.5,0.4-1,0.7c0.4,0.6,0.7,1.3,1.1,1.8
	c3,3.1,2.9,4.3-0.6,6.8c-1.2,0.8-2.4,1.8-3.1,3c-1.5,2.5-3.3,2.8-5.9,1.6c-1.6-0.8-3.4-1.1-5.1-1.7c-0.2,0.4-0.4,0.8-0.7,1.3
	c1.3,1,2.5,2,3,2.4c-0.9,3.1-2.1,5.7-2.3,8.4c-0.3,5.3,0.2,10.7-6.3,12.9c1.4,4.3,5.6,8.3-0.5,11.6c3.2,3.7,7.7,5.7,13.4,6
	c4.1,0.2,5,1.3,4.4,5.5c-0.3,1.8-0.9,3.5-1.3,5.3c-0.8,3.9,1,6.1,5,6.2c1.3,0,2.7-0.1,4,0.1c2.7,0.4,4.9,1.3,4.1,5
	c-0.2,1.1-0.2,2.3,0.1,3.5h34.6c1.4-1.2,3.6-1.5,7.2-1.4c3.5,0.1,7.1,0.2,10.6-0.1c2.9-0.2,4.7-1.4,3.8-5c-0.6-2.3-0.4-4.9-0.3-7.3
	c0.2-4.9,1.6-6.1,6.6-5.9c0.6,0,1.3-0.1,2.2-0.2c-1.7-2-3-3.6-4.9-5.8c2.2-0.4,3.5-0.8,4.9-0.8c4.6-0.1,5.7-0.9,5.2-5.6
	C321.4,565.2,320.6,562.4,319.6,559.6z"/>
<path d="M447.5,469.2c3,3.6,6,2.4,7.8,1.5c2.2,1.7,3.9,3.9,5.6,3.9c5.7,0,6.8,4.8,7.6,8c1.4,5.4,1.3,11.3,1.3,17
	c0,4.9-6.2,10.2-11.1,9.9c-3.4-0.2-6.3,0.5-8.3,3.7c-4.6-1.7-9.1-3.4-13.7-5.1c-6.8-2.5-8.7-8.4-9.9-14.6c-0.2-1.2,0.7-2.8,1.3-4
	c2.2-3.9,2.2-3.8-0.2-7.3c1.3-0.4,2.6-0.6,3.8-1.1c2.2-0.9,3.8-2.2,3.4-4.9c-0.4-2.9,1-3.6,3.6-3.4
	C442.1,473.2,445.7,473.7,447.5,469.2z"/>
<path d="M489.3,388.1c1.9,4.7-0.1,9.6-3,14.7c-4.1,7-10.5,8.7-17.7,9.2c-3.2,0.3-6.5,1-7.5-3.8c-0.3-1.5-2.6-2.8-4.1-4
	c-3.4-2.7-3.6-3.3-1.6-7.4c-3.2-1.8-3-4.3-1.4-7.1c3.1-5.6,6.1-11.4,13.4-12.2c2.3-0.3,4.7,0.1,7.1,0.3c0.5,0,0.9,0.5,1.4,0.5
	c4.4-0.5,6.7,1.6,8,5.7C484.4,385.6,486.9,386.4,489.3,388.1z"/>
<path d="M370.2,442.5c-0.1-6.4,4.9-10.7,12.9-10.8c6.4,0,8.7,5.2,9.3,12.6c0.4,4.3-5.4,10.3-9.6,9.8
	C375.4,453.3,370.3,450.8,370.2,442.5z"/>
<path d="M324.4,520c-3.1-0.9-6.3-0.1-6.2-3.8c0.1-2.6,1.9-3.8,4.4-3.8c2.9,0,4.1,2.1,4,4.5C326.5,518.1,325.1,519.1,324.4,520z"/>
<path d="M248.3,249.8c-1.4-1.5-2.2-2.5-3.1-3.5c1.1-0.8,2.1-2,3.2-2.2c0.7-0.1,2.3,1.4,2.4,2.2C250.8,247.2,249.5,248.2,248.3,249.8
	z"/>
<path d="M198.2,448.3c-2.2,6.5-8.5,9.8-16,12.5c-10.4,3.7-18.4-0.3-26.3-6c-3.5-2.6-7.5-4.7-4.4-10.5c1-1.9-0.3-5.1-0.8-7.7
	c-1.2-5.7-0.8-6.6,4.9-9c-1.8-4.7,0.7-7,4.8-8.6c8.1-3.1,16.2-6.3,24.5-0.8c2.6,1.8,4.8,4.3,7.1,6.5c0.5,0.4,0.5,1.3,1,1.7
	c5,3.4,5.5,7.5,3.2,12.9C195.3,441.4,197.2,444.4,198.2,448.3z"/>
<path d="M34.1,354.7c5-1.4,8.4-2.3,12.7-3.6c-3.4-1.8-5.7-3.1-7.7-4.1c0.9-7.5,4.3-15.4,2-20.7c-2.6-5.8-9.5-9.6-4.9-17.8
	c-4-0.4-7.3-0.8-11.1-1.2c0.2-3.5,0.4-6.5,0.5-9.1C17,296,8.5,293.7,0,291.4v105.9c3.5-1.4,7.4-1,12,3.6c7-9,14.2-18.1,21.8-27.9
	c-0.4-1-1.4-3.7-2.7-7.3c3.6,0,6,0.1,8.9,0.1C37.9,361.9,36.2,358.7,34.1,354.7z"/>
<path d="M20.3,472.4c-0.9-3.3-2-8.3-7.8-8.3c-1.7,0-3.4-2.3-5.7-4c-1.6,0.7-4.1,1.8-6.7-0.2v43.4c0.5,0.2,1.1,0.4,1.6,0.6
	c2.1-3.3,5-4.1,8.5-3.8c5,0.3,11.4-5.2,11.4-10.2C21.6,484.1,21.7,478,20.3,472.4z"/>
</svg>
