<svg id="Layer_1" data-name="Layer 1" xmlns="http://www.w3.org/2000/svg" viewBox="0 0 600 600.28"><defs><style>.cls-1{fill:#9bd2ca;}.cls-2{fill:#ccaa41;}.cls-3{fill:#030504;}.cls-4{fill:#ddb84c;}.cls-5{fill:#d8d2ce;}.cls-6{fill:#181818;}.cls-7{fill:#0e0908;}.cls-8{fill:#f4f2f3;stroke:#f4f2f3;stroke-miterlimit:10;stroke-width:0.25px;}</style></defs><title>panel_pen</title><rect class="cls-1" width="600" height="600"/><path class="cls-2" d="M394.84,547.84" transform="translate(0.09 -1.44)"/><ellipse cx="307.74" cy="281.9" rx="13.64" ry="151.37"/><ellipse class="cls-3" cx="307.74" cy="544.36" rx="96.05" ry="24.13"/><path class="cls-4" d="M324.88,160.94c-2.65-8.54-4.61-28.15-15.94-29V355.31c0,3.38-.8,9.56-1.29,15.88-.5-6.32-1.29-12.5-1.29-15.88V132c-11.33.81-13.3,20.42-15.94,29-7,22.63-14.49,45.2-23.42,67.15-13.19,32.41-49.06,66.29-45.58,103.44,1.59,17,4.74,33.88,8.25,50.59.92,4.36,1.15,8.92,2,12.62a4.4,4.4,0,0,0-.08,1.34c1.55,14.77,7.25,70.75,6.93,90.92-.17,10.73.45,34.36,1.22,57.73,17.38,4.36,41.38,7.06,67.89,7.06,25.71,0,49.07-2.54,66.31-6.67.77-23.5,1.4-47.33,1.23-58.12-.3-18.94,4.71-69.48,6.6-87.78,2.63-3.92,2.52-10.71,3.86-17.09,3.51-16.71,6.66-33.58,8.25-50.59,3.47-37.16-32.39-71-45.58-103.44C339.37,206.14,331.89,183.57,324.88,160.94Z" transform="translate(0.09 -1.44)"/><ellipse cx="307.74" cy="340.84" rx="13.64" ry="92.42"/><path class="cls-5" d="M368.15,546.4l15.43-204.91a1.27,1.27,0,0,1,0-.17c.29-1.41.33-14.77-16.84-28.62-22.5-18.16-46-48.78-54.71-62.85-.78-1.25-3.12-1.36-3.12.11l.44,188.32-1.73,4.93-1.51-4.93.44-188.4c0-1.47-2.57-1.28-3.34,0-8.71,14.07-32.21,44.69-54.71,62.85-17.17,13.85-17.13,27.22-16.84,28.62a1.28,1.28,0,0,1,0,.17L247.13,546.4c16.52,3.37,37.57,5.39,60.51,5.39S351.64,549.77,368.15,546.4Z" transform="translate(0.09 -1.44)"/><circle cx="307.74" cy="433.26" r="10.28"/><path class="cls-6" d="M4.29,198.93,10,198.8c.93,0,2,0,3.1-.1l3.7-.3c1.33-.12,2.76-.21,4.29-.37l4.84-.68,2.63-.37c.9-.13,1.8-.35,2.74-.52l5.85-1.17,6.27-1.6,1.64-.42,1.64-.52L50,191.68A151.27,151.27,0,0,0,79.32,178.6c1.26-.75,2.59-1.43,3.83-2.27l3.8-2.48c2.61-1.6,5-3.56,7.61-5.4,1.3-.9,2.5-2,3.75-3l3.75-3.09,3.63-3.34c1.21-1.13,2.47-2.22,3.61-3.46,2.33-2.42,4.74-4.81,6.92-7.48,1.1-1.3,2.3-2.61,3.34-3.93l.82-1,.74-1c.5-.67,1-1.39,1.43-2.11a38.83,38.83,0,0,0,4.47-9.2,24.87,24.87,0,0,0,1.08-4.9l.06-1.22a6.65,6.65,0,0,0,0-1.21l-.07-1.2-.22-1.17-.11-.58-.19-.56-.37-1.11-.52-1a4.76,4.76,0,0,0-.61-1l-.63-.92c-.3-.36-.62-.74-.85-1a14.21,14.21,0,0,0-1.82-1.56c-2.67-2-6.09-3.28-9.62-4.63s-6.93-2.3-9.66-1.59a5.74,5.74,0,0,0-1,.33l-.23.11-.12.05s-.15.07,0,0c-.18.11-.49.26-.55.32a7.78,7.78,0,0,0-1.57,1.39,13,13,0,0,0-1.4,2c-.21.36-.42.73-.62,1.12l-.29.59-.23.55a32.84,32.84,0,0,0-1.78,21.22,34.06,34.06,0,0,0,4.16,10,23.56,23.56,0,0,0,1.52,2.23,22.07,22.07,0,0,0,1.7,2.08,20.68,20.68,0,0,0,1.87,1.91l1,.9.12.11s.23.19,0,0l.3.22.6.44,2.39,1.76,2.24,1.26c.38.2.71.44,1.13.62l1.24.53,1.24.53a7.62,7.62,0,0,0,1.27.47l2.59.79c.86.26,1.78.37,2.66.57l1.33.27c.45.06.91.09,1.36.14.91.08,1.81.21,2.72.26a51.81,51.81,0,0,0,5.5-.06,50.56,50.56,0,0,0,5.49-.61,62.79,62.79,0,0,0,10.7-2.83c1.76-.56,3.43-1.35,5.13-2,.84-.36,1.66-.8,2.48-1.19s1.65-.79,2.44-1.26l2.39-1.35c.79-.46,1.54-1,2.31-1.46l1.15-.73.22-.14.29-.21.59-.42,2.34-1.66c2.88-2.18,5.76-4.45,8.54-6.88s5.49-4.89,8.16-7.41c10.67-10,20.9-20.55,32.49-28.54A117.17,117.17,0,0,1,252.86,86.3a51.2,51.2,0,0,1,17.84-2.14,33.73,33.73,0,0,1,4.31.61l1,.24.26.06.28.07.12,0,.46.15,1.84.6.91.3,1,.44,1.93.88a14.21,14.21,0,0,1,1.76,1l1.67,1a38.83,38.83,0,0,1,10,10.08A62.15,62.15,0,0,1,302,110a85.47,85.47,0,0,1,4.82,15.54c.4,1.83.64,3.24.8,4.19l.25,1.44-.78.17-.4-1.39c-.26-.92-.64-2.28-1.22-4a94.8,94.8,0,0,0-6.05-14.66,60.1,60.1,0,0,0-6.09-9.3,34.63,34.63,0,0,0-9.5-8.39l-1.49-.78a10.83,10.83,0,0,0-1.51-.73l-1.52-.6-.76-.31-.92-.25-1.87-.5-.47-.13-.12,0c.26.07,0,0,0,0l-.22,0L274,90a28.29,28.29,0,0,0-3.64-.31,48.09,48.09,0,0,0-15.69,2.71,119.52,119.52,0,0,0-32.87,17c-10.63,7.82-20.41,18.05-31.32,28.34-2.74,2.56-5.57,5.11-8.52,7.59s-6,4.88-9.3,7.23l-2.37,1.61-.59.4-.3.2-.22.14-.16.1-1.29.79c-.87.52-1.72,1.07-2.61,1.56l-2.69,1.42c-.89.5-1.82.9-2.74,1.33s-1.84.87-2.79,1.25c-1.91.73-3.78,1.53-5.75,2.11a70.12,70.12,0,0,1-12,2.83,62.2,62.2,0,0,1-12.53.48c-1.05-.09-2.1-.25-3.16-.37-.53-.07-1.05-.12-1.58-.21l-1.56-.34c-1-.25-2.09-.42-3.11-.74l-3.06-1a10.41,10.41,0,0,1-1.5-.59l-1.47-.66-1.47-.67c-.49-.22-1-.55-1.46-.83-1-.58-1.94-1.16-2.87-1.75l-2.35-1.81a38.08,38.08,0,0,1-13.2-21.66,40.37,40.37,0,0,1-.78-12.64,38.24,38.24,0,0,1,1.14-6.24,12.75,12.75,0,0,1,.46-1.55l.54-1.56c.09-.25.18-.53.28-.76l.3-.67.6-1.33.36-.79.37-.71c.25-.47.53-.95.82-1.41A18.4,18.4,0,0,1,96,105.77a12.86,12.86,0,0,1,2.84-2.36c.34-.21.48-.27.71-.4s.18-.09.28-.13l.22-.1.43-.19a11,11,0,0,1,1.78-.56,15.69,15.69,0,0,1,6.87.12A38.15,38.15,0,0,1,115,104c3.54,1.45,7.29,2.9,10.69,5.47a18.81,18.81,0,0,1,2.41,2.16c.43.45.71.8,1,1.16l.16.22.11.17.23.34.45.68a18,18,0,0,1,1.5,2.88c.18.51.33,1,.49,1.54l.23.77.14.79c.09.52.18,1,.25,1.57l.07,1.57a9.73,9.73,0,0,1,0,1.55c0,.51-.06,1-.11,1.53a29.31,29.31,0,0,1-1.38,5.79,43.1,43.1,0,0,1-5.14,10.12c-.52.77-1,1.53-1.61,2.28l-.84,1.12-.84,1c-1.17,1.43-2.38,2.69-3.55,4-2.3,2.69-4.85,5.09-7.29,7.52-1.2,1.24-2.52,2.33-3.79,3.46l-3.8,3.33-3.92,3.07c-1.3,1-2.55,2.05-3.91,2.95-2.67,1.82-5.21,3.75-7.9,5.32l-3.94,2.43c-1.29.82-2.66,1.48-4,2.22a153.72,153.72,0,0,1-30.06,12.57l-3.44,1-1.68.48-1.67.39L37.48,197l-5.95,1c-.95.15-1.87.34-2.78.45l-2.66.3-4.9.55c-1.55.12-3,.17-4.35.25l-3.74.2c-1.14.05-2.18,0-3.1,0l-5.69,0Z" transform="translate(0.09 -1.44)"/><path class="cls-7" d="M403.37,556.18a7.38,7.38,0,0,0,.32-2.11Z" transform="translate(0.09 -1.44)"/><path class="cls-7" d="M211.92,556.2l-.32-2.13A7.38,7.38,0,0,0,211.92,556.2Z" transform="translate(0.09 -1.44)"/><path class="cls-7" d="M396.52,601.72l6.85-45.54c-4,13.35-45.27,23.83-95.73,23.83s-91.71-10.47-95.72-23.81l6.92,45.52Z" transform="translate(0.09 -1.44)"/><path class="cls-8" d="M271.46,32.45a38,38,0,0,1,7.15-.63c3.91,0,6.43.67,8.32,2.21a6.36,6.36,0,0,1,2.52,5.35c0,2.92-1.93,5.49-5.13,6.66v.09a7.82,7.82,0,0,1,6.25,7.6A8.17,8.17,0,0,1,288,59.81c-2.11,1.94-5.53,2.83-10.48,2.83a45.82,45.82,0,0,1-6.07-.36Zm3.91,12.42h3.56c4.14,0,6.57-2.16,6.57-5.08,0-3.56-2.7-5-6.66-5a16.81,16.81,0,0,0-3.46.27Zm0,14.53a21,21,0,0,0,3.29.18c4,0,7.78-1.48,7.78-5.89,0-4.14-3.55-5.85-7.83-5.85h-3.24Z" transform="translate(0.09 -1.44)"/><path class="cls-8" d="M301.25,32h3.91v27h13v3.28H301.25Z" transform="translate(0.09 -1.44)"/><path class="cls-8" d="M352.05,46.9c0,10.44-6.34,16-14.08,16-8,0-13.63-6.21-13.63-15.39,0-9.63,6-15.93,14.08-15.93C346.7,31.55,352.05,37.9,352.05,46.9Zm-23.53.5c0,6.48,3.51,12.28,9.67,12.28s9.72-5.71,9.72-12.6c0-6-3.15-12.33-9.67-12.33S328.52,40.73,328.52,47.39Z" transform="translate(0.09 -1.44)"/><path class="cls-8" d="M385.62,61a28.24,28.24,0,0,1-9.31,1.67c-4.59,0-8.37-1.17-11.34-4-2.61-2.52-4.23-6.57-4.23-11.29,0-9,6.25-15.66,16.42-15.66a18.75,18.75,0,0,1,7.56,1.39l-.94,3.2A15.72,15.72,0,0,0,377.07,35c-7.38,0-12.19,4.59-12.19,12.19s4.63,12.24,11.7,12.24a12.76,12.76,0,0,0,5.22-.81v-9h-6.16V46.45h10Z" transform="translate(0.09 -1.44)"/><path d="M587.5,221.31c-8.09.77-15.33,4.93-13.65,13.14,1.07,5.27,8,10.55,13.5,13,2.41,1,9.69-4.29,11.55-8.24,1.67-3.57-1-9.2-1.83-13.92Z" transform="translate(0.09 -1.44)"/><path d="M599.91,460.13a8.83,8.83,0,0,1-1.31-1.28c-1.87,4.62-5.51,4.06-8.86,3.79-2.74-.22-4.15.51-3.76,3.46.36,2.76-1.28,4.19-3.55,5.06a40.34,40.34,0,0,1-3.92,1.09c2.5,3.58,2.44,3.55.21,7.51-.71,1.27-1.64,2.91-1.39,4.17,1.27,6.41,3.27,12.49,10.24,15.1,4.09,1.53,8.2,3,12.35,4.57Z" transform="translate(0.09 -1.44)"/><path d="M599.91,291l-4.24-1.15c-20.58-5.61-45.88,2.47-57.53,20.28C528,325.6,517,341.6,525,362a16.59,16.59,0,0,1,.79,7.22c-.64,7.57,2.42,11.7,7,11.41,3.86,5.41,6,11.51,9,12,10.38,1.66,20.31,2.43,20.3,15.68,2.89-3.27,5.54-8.77,8.52-9,3.85-.29,8,3.63,14.54,7.11,4.6-.81,9.21-7.28,14.77-9.49Z" transform="translate(0.09 -1.44)"/></svg>