<svg id="Layer_1" data-name="Layer 1" xmlns="http://www.w3.org/2000/svg" viewBox="0 0 600 600"><defs><style>.cls-1{fill:#e5d664;}.cls-2{font-size:45.26px;fill:#f4f2f3;stroke:#f4f2f3;stroke-width:0.25px;font-family:MyriadPro-Regular, Myriad Pro;letter-spacing:0.12em;}.cls-2,.cls-6{stroke-miterlimit:10;}.cls-3{fill:#707071;}.cls-4{fill:#f2f0f0;}.cls-5{fill:#fff;}.cls-6{fill:none;stroke:#eaeaea;stroke-width:2px;}.cls-7{fill:#ddb84c;}.cls-8{fill:#eaeaea;}</style></defs><title>panel_mouse</title><rect class="cls-1" width="600" height="600"/><text class="cls-2" transform="translate(214.54 59.55)">GITHUB</text><path class="cls-3" d="M598.81,208.49c-17-12.49-37.13-21.77-57.05-28.29-38.19-12.51-80.43-12.78-115.83,8.07-26.94,15.86-41.22,42.42-48.71,72-7,27.72-8.22,56.58-15.49,84.22-3.15,12-7.8,24.57-17.44,32.9-10.82,9.35-25.67,10-39.2,8.18-3.18-.43-3.15,4.58,0,5,12.14,1.63,25.09,1.24,36-4.89,9.16-5.13,15.51-13.79,19.72-23.23,10.88-24.41,12-52.56,16.54-78.56,5-28.57,13-58.83,34.84-79.37,30.21-28.35,75.36-33,114.09-23.53,24.54,6,49.52,16.77,70,31.84C598.88,214.72,601.38,210.38,598.81,208.49Z"/><path class="cls-4" d="M600,212.46c-16.91-12.4-37-21.61-56.79-28.11-38.19-12.51-80.43-12.78-115.83,8.07-26.94,15.86-41.22,42.42-48.71,72-7,27.72-8.22,56.58-15.49,84.22-3.15,12-7.8,24.57-17.44,32.9-10.82,9.35-25.67,10-39.2,8.18-3.18-.43-3.15,4.58,0,5,12.14,1.63,25.09,1.24,36-4.89,9.16-5.13,15.51-13.79,19.72-23.23,10.88-24.41,12-52.56,16.54-78.56,5-28.57,13-58.83,34.84-79.37,30.21-28.35,75.36-33,114.09-23.53,24.54,6,49.52,16.77,70,31.84a2,2,0,0,0,2.26.22Z"/><path class="cls-5" d="M171.51,600H0V422.69s89.6-92.78,238.26-85c26.17,1.37,51.51,10.61,71.63,27.39,23.1,19.27,43,50.89,25.31,99C299.28,561.81,171.51,600,171.51,600Z"/><path class="cls-6" d="M161,424.33C214.46,399,270.64,379.17,314.64,380"/><path class="cls-7" d="M221.56,401.4a2.74,2.74,0,0,1-2.5-4.3c5.54-7.92,17-22.26,32.11-24.94l.25,0c1.65-.22,19.12-2.3,31.94,7.25a2.89,2.89,0,0,1-.15,4.8c-6.08,3.72-12.06,8.86-26.91,12.86C241.88,400.92,230.67,400.55,221.56,401.4Z"/><path class="cls-8" d="M41.63,599.64H152.17S287.49,534.9,303.92,489.7,290.23,437.4,264.2,443s-39.73,66.75-67.12,69.74S65.31,507,30,544.41C-1.83,578.05,41.63,599.64,41.63,599.64Z"/></svg>