<svg id="Layer_1" data-name="Layer 1" xmlns="http://www.w3.org/2000/svg" viewBox="0 0 600.22 600.22"><defs><style>.cls-1{fill:#d8d2ce;}.cls-2{font-size:45.28px;fill:#fff;stroke:#fff;stroke-miterlimit:10;stroke-width:0.25px;font-family:MyriadPro-Regular, Myriad Pro;letter-spacing:0.12em;}.cls-3{letter-spacing:0.15em;}.cls-4{letter-spacing:0.12em;}.cls-5{letter-spacing:0.11em;}.cls-6{letter-spacing:0.1em;}</style></defs><title>panel_ink</title><rect class="cls-1" width="600.22" height="600.22"/><text class="cls-2" transform="translate(59.2 59.57)">APRICI<tspan class="cls-3" x="156.66" y="0">T</tspan><tspan class="cls-4" x="185.86" y="0">Y </tspan><tspan class="cls-5" x="230.82" y="0">M</tspan><tspan class="cls-6" x="272.2" y="0">A</tspan><tspan x="304.66" y="0">GAZINE</tspan></text><path d="M600.22,560.33l-22.27-11,1.84-1.73a83.13,83.13,0,0,1-7.75-3.09c-1.9-1-2.65-2.38-1.17-4.73,1.32-2.09,1.61-4.8,2.62-7.12s1.95-4.76,3.56-6.58c2.87-3.24,3.05-3.27-.45-6-3-2.37-2.87-5,.64-6.11,2.19-.7,2-1.86,1.43-3.24a17.93,17.93,0,0,0-2.51-4c-2.27-2.8-4.39-5.54-3.38-9.54.22-.88-.39-2-.71-3.4-3.68,1.85-7.23,5.05-10.43.89-2.31-3-3.79-6.65-5.76-10.23a28.59,28.59,0,0,1-4.63,1.73c-1,.2-2.84-.14-3-.66-1.42-4.33-3.91-3.09-6.81-1.77-5.25,2.39-7.39,1.47-10-3.82-.42-.86-.88-1.69-1.3-2.5a3.13,3.13,0,0,0-.86.21c-7.86,5.37-15.78,10.61-25.35,12.57-.8.16-1.48,1.12-2.12,1.81-4.86,5.25-9.49,10.73-14.58,15.74-5.46,5.37-11.33,10.33-17.07,15.42-2.13,1.89-2.33,3.83-1.25,6.47,2.67,6.53,2.46,6.75-4.34,8.6-.35.1-.79.09-1,.31-1,.85-1.84,1.78-2.75,2.68,1.12.41,2.24,1.13,3.37,1.16,3.51.07,4.73,1.22,3.35,4.39a56.43,56.43,0,0,1-5.3,8.62c-1.25,1.86-2.72,3.57-4.09,5.34l.62.88,8.9-2c1.13,3.65,2.69,7.35,3.24,11.19.21,1.48-2.06,3.21-2.89,5a17.51,17.51,0,0,0-.87,4c1.37,0,2.89.31,4.1-.15,5.45-2.09,5.19-2,7.84,2.41,1.64,2.76-.16,4.18-1.13,6.21-.54,1.13,0,2.76,0,4.16a34.18,34.18,0,0,0,3.82-.83c1.43-.47,2.79-1.17,4.18-1.77.6,1.69,1.54,3.35,1.72,5.09a24.25,24.25,0,0,1-.41,5.32H489a12.82,12.82,0,0,1,2.24-2.45c1.09-.83,2.66-1.76,3.8-1.53.83.16,1.53,2.07,1.86,3.31a2.81,2.81,0,0,1,.09.67h31.17c1.07-.28,2.14-.55,3.21-.85,2.79-.77,5-.51,6.79.85h15.16c.42-1.22.74-2.48,1.14-3.71,4.62-14,11.47-26.59,23.72-35.58a5.22,5.22,0,0,1,6-.7c5.31,2.37,10.75,4.46,16.12,6.63Z"/><path d="M307,179.35c3.3,3.15,3.66,6.26,1,9.88-.57.76-1.93,1.78-2.41,1.55a3.77,3.77,0,0,1-2.08-2.55c0-3,.37-5.92.61-8.88Z"/><path d="M192.08,226.94c2.85-1.5,4.46-.28,5,3.23l-5-2.5Z"/><path d="M384.88,270.78c-.13.42-.17.64-.26.86-3.05,7.65-8.73,9.33-16.24,7.4a23.45,23.45,0,0,0-6.55-.22,5.5,5.5,0,0,0-5.54,4.51c-2.54,12.09-10.74,19.55-20.6,25.71-.62.39-1.27.72-1.92,1.06-3.91,2-5.12,4-3.67,8.14a33,33,0,0,0,5,8.73c1.89,2.51,4.8,4.28,6.55,6.86,2.06,3,4.1,6.44,4.8,9.95,1,5.24-2,8.09-7.36,7.07a25.28,25.28,0,0,1-9.06-4.18c-2.26-1.54-3.8-4.09-5.81-6a30.36,30.36,0,0,0-5.31-4.41c-3.63-2.18-4.72-1.78-6,2.19a13.88,13.88,0,0,1-8.6,9.15c-8.55,3.5-16.82,7.7-25.24,11.52-1.83.83-3.82,1.31-6.16,2.1v-16c-4.39,1.33-8.83-3.42-12.14,1.77-5.09-1.32-4.39-6-5.9-10.53-2.33,2.32-4.15,4.08-5.89,5.92-.67.7-1.06,1.66-1.74,2.34-1.39,1.39-2.15,4.56-4.86,3-3.13-1.84-3.31-5.2-.68-7.81,1.08-1.07,2.75-1.54,4.12-2.33.75-.43,1.85-.83,2.08-1.48,3.75-10.91,7.28-21.91,11.12-32.79,1.26-3.57-.19-5.28-3.26-5.72a99.44,99.44,0,0,0-11.93-.68c-5.26-.1-10.53,0-15.8,0l-.14-1.53a50.66,50.66,0,0,1,6.81-1.23c5.65-.28,6.81-5.27,9.44-8.7.26-.34-.1-1.43-.47-2-2.6-3.56-2.62-7.41-1.68-11.52.82-3.62,1.32-7.31,2-11.05,2.42,1.19,5.19,2.36,7.77,3.86,2.25,1.3,3.76.45,5.58-.88s4.33-2.29,6.36-3.64a4.4,4.4,0,0,0,1.81-2.7c1.12-8.8-2.88-15.53-8.91-21.4-.81-.79-1.5-1.7-2.24-2.56a27.82,27.82,0,0,1,2.67-2.12,38.48,38.48,0,0,1,3.6-1.74c2.34,3.35,4.48,6.9,7.09,10.05,3.4,4.09,7.11,7.94,10.83,11.75,1,1.05,2.44,2.12,4.09.37.34-.36,1.67.11,2.5.36,1.06.32,2.06.8,3.09,1.21.3-1.22.68-2.43.85-3.67a12.73,12.73,0,0,0-.14-2.53c5.23-.67,5.25-.67,5.09-6.19-.06-2.14-.23-4.28-.35-6.5,6.56,3.17,6.56,3.17,9.92-4.1.69,7,2.53,12.88,8.26,17.53l2.43-5.11c.3,1.72.6,3.43,1,5.6,7.11-3.87,12.36-8.84,16-15.6.66-1.23,2.15-2,3.26-3l1.2,1c-.62,1.51-1.21,3-1.87,4.52-2,4.44-4.16,8.81-6,13.34-1,2.6-3,5.29-.37,8.31.57.64-.34,2.42,0,3.54.35,1.34,1,3,2,3.69,1.62,1,2.71-.08,3.55-1.85.38-.81,2.64-1.69,3.23-1.3,12.93,8.5,27.59,8.79,42.24,9.23,1.83.05,3.65.13,5.48.22A5.75,5.75,0,0,1,384.88,270.78Z"/><path d="M319.61,559.63c-1-2.87-2.49-5.55-3.57-8.39-1.39-3.66-1.15-7.15.21-11,1-2.72.41-6.15-.08-9.16-.33-2-2-2.91-4.46-3.41a72.61,72.61,0,0,1-15.88-4.95c-4.71-2.17-8.84-5.58-13.24-8.41-2.42-1.56-4.89-3.05-8.18-5.11-.39,2.58-.55,4.4-1,6.16A4.58,4.58,0,0,1,272,518a2.56,2.56,0,0,1-2.49-.44c-2.56-4.19-5.77-2.87-9.21-1.49-5.42,2.18-10.84,4.49-16.92,3.8-.24,0-.53.39-1,.73a10.5,10.5,0,0,0,1.14,1.77c3,3.06,2.86,4.32-.6,6.83a11.73,11.73,0,0,0-3.09,3c-1.55,2.46-3.32,2.83-5.86,1.56a35.53,35.53,0,0,0-5.13-1.68l-.66,1.26,3,2.35c-.86,3.07-2.1,5.73-2.25,8.45-.3,5.31.22,10.75-6.34,12.86,1.37,4.28,5.63,8.35-.53,11.6,3.22,3.71,7.72,5.68,13.4,6,4.06.23,5,1.31,4.36,5.47-.27,1.8-.92,3.53-1.28,5.32-.76,3.87,1,6.1,5,6.23a32.93,32.93,0,0,1,4,.08c2.74.44,4.87,1.27,4.1,5a8.83,8.83,0,0,0,.1,3.53h34.6c1.36-1.18,3.58-1.49,7.22-1.43s7.08.19,10.59-.07c2.86-.21,4.74-1.4,3.81-5a26.27,26.27,0,0,1-.33-7.28c.17-4.9,1.59-6.1,6.55-5.9a21.18,21.18,0,0,0,2.22-.17l-4.93-5.84a39.91,39.91,0,0,1,4.93-.81c4.64-.11,5.66-.92,5.25-5.62A36.27,36.27,0,0,0,319.61,559.63Z"/><path d="M447.48,469.22c3,3.62,6,2.37,7.84,1.52,2.25,1.65,3.92,3.92,5.57,3.91,5.7,0,6.77,4.79,7.6,8,1.4,5.42,1.27,11.31,1.27,17,0,4.86-6.17,10.2-11.05,9.88-3.44-.23-6.28.49-8.28,3.71-4.6-1.7-9.14-3.36-13.66-5.05-6.76-2.53-8.7-8.43-9.93-14.65-.24-1.22.65-2.81,1.35-4,2.16-3.85,2.22-3.82-.21-7.29a39.13,39.13,0,0,0,3.81-1.06c2.2-.85,3.8-2.23,3.45-4.91-.38-2.86,1-3.58,3.65-3.36C442.14,473.15,445.67,473.7,447.48,469.22Z"/><path d="M489.34,388.1c1.86,4.71-.07,9.63-3,14.75-4.06,7-10.51,8.68-17.71,9.24-3.23.25-6.46,1-7.5-3.8-.34-1.55-2.6-2.76-4.12-4-3.39-2.67-3.59-3.34-1.56-7.38-3.24-1.78-3-4.26-1.42-7.1,3.06-5.65,6.1-11.35,13.41-12.18a41.78,41.78,0,0,1,7.11.25c.47,0,.94.5,1.37.46,4.42-.49,6.67,1.58,8,5.72C484.43,385.57,486.91,386.38,489.34,388.1Z"/><path d="M370.16,442.52c-.13-6.36,4.88-10.75,12.9-10.79,6.35,0,8.71,5.2,9.34,12.58.37,4.33-5.39,10.31-9.62,9.83C375.44,453.29,370.31,450.82,370.16,442.52Z"/><path d="M324.41,520c-3.14-.92-6.32-.13-6.23-3.81.06-2.59,1.86-3.83,4.37-3.81,2.92,0,4.12,2.05,4,4.51C326.53,518.05,325.07,519.14,324.41,520Z"/><path d="M248.32,249.76l-3.08-3.47c1.06-.78,2.06-2,3.21-2.18.73-.1,2.32,1.4,2.35,2.23S249.53,248.19,248.32,249.76Z"/><path d="M93.94,326.76c-3.31-6-11.47-10.64-5.5-19.92-8-3.37-13.89-7.84-4.37-15.69-2.73-7-17.74,6.79-14.24-10.25-10.84,6.12-17.78-9.52-28.11-4-5.52-8.17-11.15-2.16-16.42.34-5.52,2.63-11.21,5.38-15.87,9.26A44.13,44.13,0,0,0,0,297.67v39.91c1.57,3.5,3.17,7,4.71,10.49l1.7-1.92c3.79,3.19,7.14,7.37,11.49,9.32,4.72,2.11,10.36,2.16,18.09,3.56l4.66,8c.82-10.47,3.22-11,14.3-4,4-9.84,7.74-2.25,11.12-.44,8.18,0,2.9-18.4,16.37-10.26l-1.71-7.15,12.61-.86C83.56,332.78,83.59,332.37,93.94,326.76Z"/><path d="M198.16,448.33c-2.21,6.47-8.51,9.85-16,12.53-10.35,3.68-18.42-.29-26.33-6-3.54-2.57-7.5-4.67-4.39-10.48,1-1.89-.25-5.12-.77-7.68-1.15-5.72-.77-6.58,4.87-9-1.77-4.66.69-7,4.76-8.55,8.1-3.13,16.23-6.33,24.48-.78,2.63,1.77,4.78,4.27,7.09,6.49.45.44.52,1.34,1,1.67,5,3.37,5.48,7.47,3.25,12.93C195.33,441.42,197.17,444.43,198.16,448.33Z"/></svg>