<?xml version="1.0" encoding="utf-8"?>
<!-- Generator: Adobe Illustrator 20.1.0, SVG Export Plug-In . SVG Version: 6.00 Build 0)  -->
<svg version="1.1" id="Layer_1" xmlns="http://www.w3.org/2000/svg" xmlns:xlink="http://www.w3.org/1999/xlink" x="0px" y="0px"
	 viewBox="0 0 600 600" style="enable-background:new 0 0 600 600;" xml:space="preserve">
<style type="text/css">
	.st0{fill:#E5D664;}
	.st1{fill:#F4F2F3;}
	.st2{fill:#707071;}
	.st3{fill:#F2F0F0;}
	.st4{fill:#FFFFFF;}
	.st5{fill:none;stroke:#EAEAEA;stroke-width:2;stroke-miterlimit:10;}
	.st6{fill:#DDB84C;}
	.st7{fill:#EAEAEA;}
	.st8{fill:none;}
</style>
<rect class="st0" width="600" height="600"/>
<g>
	<g>
		<path class="st1" d="M240.3,61c-1.8,0.6-5.2,1.7-9.4,1.7c-4.6,0-8.4-1.2-11.4-4c-2.6-2.5-4.3-6.6-4.3-11.4
			c0-9.1,6.3-15.7,16.5-15.7c3.5,0,6.3,0.8,7.6,1.4l-1,3.2c-1.6-0.7-3.7-1.3-6.7-1.3c-7.4,0-12.3,4.6-12.3,12.3
			c0,7.7,4.7,12.3,11.8,12.3c2.6,0,4.3-0.4,5.2-0.8v-9.1h-6.2v-3.2h10V61z"/>
		<path class="st1" d="M230.9,62.8c-4.9,0-8.6-1.3-11.5-4.1c-2.7-2.6-4.3-6.8-4.3-11.5c0-9.5,6.7-15.9,16.6-15.9
			c3.5,0,6.3,0.8,7.7,1.4l0.1,0l-1,3.5l-0.1-0.1c-2-0.9-4.1-1.3-6.7-1.3c-7.5,0-12.1,4.7-12.1,12.1c0,7.5,4.5,12.2,11.6,12.2
			c2.2,0,4.1-0.3,5.1-0.8v-8.9h-6.2v-3.4h10.3v14.9l-0.1,0C238.2,61.9,234.8,62.8,230.9,62.8z M231.7,31.7
			c-9.8,0-16.3,6.3-16.4,15.6c0,4.6,1.5,8.7,4.2,11.3c2.8,2.7,6.5,4,11.3,4c3.8,0,7.1-0.9,9.2-1.6V46.5h-9.8v2.9h6.2v9.3l-0.1,0
			c-1.1,0.5-3,0.8-5.3,0.8c-7.3,0-11.9-4.8-11.9-12.4c0-7.6,4.7-12.4,12.4-12.4c2.6,0,4.6,0.4,6.7,1.3l0.9-3
			C237.8,32.4,235.1,31.7,231.7,31.7z"/>
	</g>
	<g>
		<path class="st1" d="M255.6,31.9v30.5h-3.9V31.9H255.6z"/>
		<path class="st1" d="M255.8,62.5h-4.2V31.7h4.2V62.5z M251.8,62.2h3.7V32h-3.7V62.2z"/>
	</g>
	<g>
		<path class="st1" d="M273.7,35.2h-9.3v-3.3h22.6v3.3h-9.3v27.2h-4V35.2z"/>
		<path class="st1" d="M277.9,62.5h-4.2V35.3h-9.3v-3.6h22.8v3.6h-9.3V62.5z M273.9,62.2h3.7V35.1h9.3V32h-22.3v3.1h9.3V62.2z"/>
	</g>
	<g>
		<path class="st1" d="M299.8,31.9v12.8h14.8V31.9h4v30.5h-4V48.1h-14.8v14.3h-3.9V31.9H299.8z"/>
		<path class="st1" d="M318.7,62.5h-4.2V48.2h-14.5v14.3h-4.2V31.7h4.2v12.8h14.5V31.7h4.2V62.5z M314.7,62.2h3.7V32h-3.7v12.8h-15
			V32H296v30.3h3.7V47.9h15V62.2z"/>
	</g>
	<g>
		<path class="st1" d="M334.8,31.9v18.1c0,6.8,3,9.7,7.1,9.7c4.5,0,7.4-3,7.4-9.7V31.9h4v17.8c0,9.4-4.9,13.2-11.5,13.2
			c-6.2,0-11-3.6-11-13v-18H334.8z"/>
		<path class="st1" d="M341.7,63c-7.1,0-11.1-4.7-11.1-13.2V31.7h4.2v18.2c0,8.4,4.4,9.6,7,9.6c4.8,0,7.3-3.3,7.3-9.6V31.7h4.2v17.9
			C353.4,61.3,346.1,63,341.7,63z M330.9,32v17.8c0,10.7,5.9,12.9,10.8,12.9c4.3,0,11.4-1.7,11.4-13.1V32h-3.7v17.9
			c0,8.1-4.1,9.9-7.5,9.9c-4.6,0-7.2-3.6-7.2-9.9V32H330.9z"/>
	</g>
	<g>
		<path class="st1" d="M365.5,32.3c1.7-0.4,4.4-0.6,7.2-0.6c3.9,0,6.5,0.7,8.4,2.2c1.6,1.2,2.5,3,2.5,5.4c0,2.9-1.9,5.5-5.2,6.7V46
			c2.9,0.7,6.3,3.1,6.3,7.6c0,2.6-1,4.6-2.6,6.1c-2.1,1.9-5.6,2.9-10.5,2.9c-2.7,0-4.8-0.2-6.1-0.4V32.3z M369.5,44.8h3.6
			c4.2,0,6.6-2.2,6.6-5.1c0-3.6-2.7-5-6.7-5c-1.8,0-2.9,0.1-3.5,0.3V44.8z M369.5,59.4c0.8,0.1,1.9,0.2,3.3,0.2
			c4.1,0,7.8-1.5,7.8-5.9c0-4.2-3.6-5.9-7.9-5.9h-3.3V59.4z"/>
		<path class="st1" d="M371.6,62.8c-3,0-5.1-0.2-6.1-0.4l-0.1,0V32.2l0.1,0c1.9-0.4,4.6-0.6,7.2-0.6c4,0,6.5,0.7,8.5,2.2
			c1.7,1.3,2.6,3.2,2.6,5.5c0,2.9-1.9,5.5-5,6.7c2.9,0.8,6.1,3.3,6.1,7.7c0,2.4-0.9,4.5-2.6,6.2C380.2,61.8,376.7,62.8,371.6,62.8z
			 M365.7,62.2c1,0.1,3.1,0.3,6,0.3c5,0,8.4-0.9,10.5-2.8c1.7-1.6,2.5-3.7,2.5-6c0-4.4-3.3-6.8-6.2-7.5l-0.1,0v-0.3l0.1,0
			c3.1-1.1,5.1-3.7,5.1-6.6c0-2.2-0.9-4.1-2.5-5.3c-1.9-1.5-4.4-2.2-8.3-2.2c-2.5,0-5.2,0.2-7.1,0.6V62.2z M372.8,59.7
			c-1.6,0-2.6-0.1-3.3-0.2l-0.1,0V47.6h3.4c5,0,8,2.2,8,6C380.7,57.5,377.8,59.7,372.8,59.7z M369.6,59.3c0.7,0.1,1.7,0.2,3.2,0.2
			c2.9,0,7.7-0.8,7.7-5.8c0-3.6-2.9-5.8-7.8-5.8h-3.1V59.3z M373,44.9h-3.7v-10l0.1,0c0.8-0.2,2-0.3,3.5-0.3c4.5,0,6.8,1.8,6.8,5.1
			C379.8,42.8,377.1,44.9,373,44.9z M369.6,44.6h3.5c3.9,0,6.5-2,6.5-5c0-3.2-2.2-4.9-6.6-4.9c-1.4,0-2.5,0.1-3.4,0.2V44.6z"/>
	</g>
</g>
<path class="st2" d="M599.5,194.3c-17.9-11.1-38.7-18.8-59.1-23.8c-39-9.5-81.2-6.5-114.9,17c-25.6,17.9-37.8,45.5-43,75.5
	c-4.9,28.2-3.8,57-8.9,85.2c-2.2,12.2-5.9,25.1-14.8,34.2c-10.1,10.2-24.8,12-38.4,11.2c-3.2-0.2-2.8,4.8,0.4,5
	c12.2,0.7,25.1-0.7,35.5-7.7c8.7-5.8,14.4-14.9,17.9-24.7c9-25.2,7.9-53.3,10.4-79.6c2.8-28.9,8.4-59.7,28.6-81.8
	c27.9-30.6,72.6-38.8,111.9-32.3c24.9,4.1,50.7,12.9,72.2,26.3C600.1,200.5,602.3,196,599.5,194.3z"/>
<path class="st3" d="M601,198.1c-17.8-11-38.5-18.7-58.8-23.6c-39-9.5-81.2-6.5-114.9,17c-25.6,17.9-37.8,45.5-43,75.5
	c-4.9,28.2-3.8,57-8.9,85.2c-2.2,12.2-5.9,25.1-14.8,34.2c-10.1,10.2-24.8,12-38.4,11.2c-3.2-0.2-2.8,4.8,0.4,5
	c12.2,0.7,25.1-0.7,35.5-7.7c8.7-5.8,14.4-14.9,17.9-24.7c9-25.2,7.9-53.3,10.4-79.6c2.8-28.9,8.4-59.7,28.6-81.8
	c27.9-30.6,72.6-38.8,111.9-32.3c24.9,4.1,50.7,12.9,72.2,26.3c0.9,0.5,1.7,0.5,2.3,0L601,198.1z"/>
<path class="st4" d="M171.5,600H0V422.7c0,0,89.6-92.8,238.3-85c26.2,1.4,51.5,10.6,71.6,27.4c23.1,19.3,43,50.9,25.3,99
	C299.3,561.8,171.5,600,171.5,600z"/>
<path class="st5" d="M161,424.3c53.5-25.4,109.6-45.2,153.6-44.3"/>
<path class="st6" d="M221.6,401.4c-2.3,0.2-3.8-2.4-2.5-4.3c5.5-7.9,17-22.3,32.1-24.9c0.1,0,0.2,0,0.2,0c1.6-0.2,19.1-2.3,31.9,7.2
	c1.7,1.2,1.6,3.7-0.2,4.8c-6.1,3.7-12.1,8.9-26.9,12.9C241.9,400.9,230.7,400.5,221.6,401.4z"/>
<path class="st7" d="M41.6,599.6h110.5c0,0,135.3-64.7,151.8-109.9c16.4-45.2-13.7-52.3-39.7-46.7s-39.7,66.7-67.1,69.7
	c-27.4,3-131.8-5.7-167.1,31.7C-1.8,578.1,41.6,599.6,41.6,599.6z"/>
<line class="st8" x1="625.5" y1="214" x2="573" y2="212.5"/>
</svg>
